<mxfile host="65bd71144e">
    <diagram id="" name="Page-1">
        <mxGraphModel dx="2763" dy="2497" grid="1" gridSize="10" guides="1" tooltips="1" connect="1" arrows="1" fold="1" page="1" pageScale="1" pageWidth="827" pageHeight="1169" math="1" shadow="0">
            <root>
                <mxCell id="0"/>
                <mxCell id="1" parent="0"/>
                <mxCell id="2" value="" style="rounded=1;whiteSpace=wrap;html=1;fontSize=51;fontFamily=Times New Roman;fillColor=#fad7ac;strokeColor=none;fontColor=#000000;strokeWidth=0;" parent="1" vertex="1">
                    <mxGeometry width="1.5999999998239645" height="100" as="geometry"/>
                </mxCell>
                <mxCell id="3" value="" style="rounded=1;whiteSpace=wrap;html=1;fontSize=51;fontFamily=Times New Roman;fillColor=#fad7ac;strokeColor=none;fontColor=#000000;strokeWidth=0;" parent="1" vertex="1">
                    <mxGeometry x="259.3089999998188" width="5.984000000180956" height="100" as="geometry"/>
                </mxCell>
                <mxCell id="4" value="" style="rounded=1;whiteSpace=wrap;html=1;fontSize=51;fontFamily=Times New Roman;fillColor=#fad7ac;strokeColor=none;fontColor=#000000;strokeWidth=0;" parent="1" vertex="1">
                    <mxGeometry x="265.54899999986503" width="3.3759999999993795" height="100" as="geometry"/>
                </mxCell>
                <mxCell id="5" value="" style="rounded=1;whiteSpace=wrap;html=1;fontSize=51;fontFamily=Times New Roman;fillColor=#fad7ac;strokeColor=none;fontColor=#000000;strokeWidth=0;" parent="1" vertex="1">
                    <mxGeometry x="269.1649999999601" width="3.0559999999457688" height="100" as="geometry"/>
                </mxCell>
                <mxCell id="6" value="" style="rounded=1;whiteSpace=wrap;html=1;fontSize=51;fontFamily=Times New Roman;fillColor=#fad7ac;strokeColor=none;fontColor=#000000;strokeWidth=0;" parent="1" vertex="1">
                    <mxGeometry x="272.49299999998476" width="2.1759999999648727" height="100" as="geometry"/>
                </mxCell>
                <mxCell id="7" value="" style="rounded=1;whiteSpace=wrap;html=1;fontSize=51;fontFamily=Times New Roman;fillColor=#fad7ac;strokeColor=none;fontColor=#000000;strokeWidth=0;" parent="1" vertex="1">
                    <mxGeometry x="274.9409999998065" width="1.9520000000827764" height="100" as="geometry"/>
                </mxCell>
                <mxCell id="8" value="" style="rounded=1;whiteSpace=wrap;html=1;fontSize=51;fontFamily=Times New Roman;fillColor=#fad7ac;strokeColor=none;fontColor=#000000;strokeWidth=0;" parent="1" vertex="1">
                    <mxGeometry x="277.16499999996813" width="2.4159999998385473" height="100" as="geometry"/>
                </mxCell>
                <mxCell id="9" value="" style="rounded=1;whiteSpace=wrap;html=1;fontSize=51;fontFamily=Times New Roman;fillColor=#fad7ac;strokeColor=none;fontColor=#000000;strokeWidth=0;" parent="1" vertex="1">
                    <mxGeometry x="279.8849999998687" width="1.7759999999533704" height="100" as="geometry"/>
                </mxCell>
                <mxCell id="10" value="" style="rounded=1;whiteSpace=wrap;html=1;fontSize=51;fontFamily=Times New Roman;fillColor=#fad7ac;strokeColor=none;fontColor=#000000;strokeWidth=0;" parent="1" vertex="1">
                    <mxGeometry x="281.9009999999178" width="1.695999999995479" height="100" as="geometry"/>
                </mxCell>
                <mxCell id="11" value="" style="rounded=1;whiteSpace=wrap;html=1;fontSize=51;fontFamily=Times New Roman;fillColor=#fad7ac;strokeColor=none;fontColor=#000000;strokeWidth=0;" parent="1" vertex="1">
                    <mxGeometry x="283.88499999998373" width="1.6314999999877955" height="100" as="geometry"/>
                </mxCell>
                <mxCell id="12" value="" style="rounded=1;whiteSpace=wrap;html=1;fontSize=51;fontFamily=Times New Roman;fillColor=#fad7ac;strokeColor=none;fontColor=#000000;strokeWidth=0;" parent="1" vertex="1">
                    <mxGeometry x="285.80449999981994" width="1.7119999999870572" height="100" as="geometry"/>
                </mxCell>
                <mxCell id="13" value="" style="rounded=1;whiteSpace=wrap;html=1;fontSize=51;fontFamily=Times New Roman;fillColor=#fad7ac;strokeColor=none;fontColor=#000000;strokeWidth=0;" parent="1" vertex="1">
                    <mxGeometry x="287.78849999988586" width="1.648000000020744" height="100" as="geometry"/>
                </mxCell>
                <mxCell id="14" value="" style="rounded=1;whiteSpace=wrap;html=1;fontSize=51;fontFamily=Times New Roman;fillColor=#fad7ac;strokeColor=none;fontColor=#000000;strokeWidth=0;" parent="1" vertex="1">
                    <mxGeometry x="510.5699999998769" width="5.119999999969593" height="100" as="geometry"/>
                </mxCell>
                <mxCell id="15" value="" style="rounded=1;whiteSpace=wrap;html=1;fontSize=51;fontFamily=Times New Roman;fillColor=#fad7ac;strokeColor=none;fontColor=#000000;strokeWidth=0;" parent="1" vertex="1">
                    <mxGeometry x="515.977999999917" width="3.632000000086677" height="100" as="geometry"/>
                </mxCell>
                <mxCell id="16" value="" style="rounded=1;whiteSpace=wrap;html=1;fontSize=51;fontFamily=Times New Roman;fillColor=#fad7ac;strokeColor=none;fontColor=#000000;strokeWidth=0;" parent="1" vertex="1">
                    <mxGeometry x="519.8819999998605" width="2.752000000105781" height="100" as="geometry"/>
                </mxCell>
                <mxCell id="17" value="" style="rounded=1;whiteSpace=wrap;html=1;fontSize=51;fontFamily=Times New Roman;fillColor=#fad7ac;strokeColor=none;fontColor=#000000;strokeWidth=0;" parent="1" vertex="1">
                    <mxGeometry x="522.8579999998484" width="2.480000000026905" height="100" as="geometry"/>
                </mxCell>
                <mxCell id="18" value="" style="rounded=1;whiteSpace=wrap;html=1;fontSize=51;fontFamily=Times New Roman;fillColor=#fad7ac;strokeColor=none;fontColor=#000000;strokeWidth=0;" parent="1" vertex="1">
                    <mxGeometry x="525.6099999999542" width="2.143999999981716" height="100" as="geometry"/>
                </mxCell>
                <mxCell id="19" value="" style="rounded=1;whiteSpace=wrap;html=1;fontSize=51;fontFamily=Times New Roman;fillColor=#fad7ac;strokeColor=none;fontColor=#000000;strokeWidth=0;" parent="1" vertex="1">
                    <mxGeometry x="528.0420000000063" width="2.080000000015403" height="100" as="geometry"/>
                </mxCell>
                <mxCell id="20" value="" style="rounded=1;whiteSpace=wrap;html=1;fontSize=51;fontFamily=Times New Roman;fillColor=#fad7ac;strokeColor=none;fontColor=#000000;strokeWidth=0;" parent="1" vertex="1">
                    <mxGeometry x="530.4419999998534" width="1.7119999999870572" height="100" as="geometry"/>
                </mxCell>
                <mxCell id="21" value="" style="rounded=1;whiteSpace=wrap;html=1;fontSize=51;fontFamily=Times New Roman;fillColor=#fad7ac;strokeColor=none;fontColor=#000000;strokeWidth=0;" parent="1" vertex="1">
                    <mxGeometry x="532.4259999999192" width="1.855999999911262" height="100" as="geometry"/>
                </mxCell>
                <mxCell id="22" value="" style="rounded=1;whiteSpace=wrap;html=1;fontSize=51;fontFamily=Times New Roman;fillColor=#fad7ac;strokeColor=none;fontColor=#000000;strokeWidth=0;" parent="1" vertex="1">
                    <mxGeometry x="534.5379999999178" width="1.7279999999786355" height="100" as="geometry"/>
                </mxCell>
                <mxCell id="23" value="" style="rounded=1;whiteSpace=wrap;html=1;fontSize=51;fontFamily=Times New Roman;fillColor=#fad7ac;strokeColor=none;fontColor=#000000;strokeWidth=0;" parent="1" vertex="1">
                    <mxGeometry x="536.5219999999838" width="1.5839999998323862" height="100" as="geometry"/>
                </mxCell>
                <mxCell id="24" value="" style="rounded=1;whiteSpace=wrap;html=1;fontSize=51;fontFamily=Times New Roman;fillColor=#fad7ac;strokeColor=none;fontColor=#000000;strokeWidth=0;" parent="1" vertex="1">
                    <mxGeometry x="538.3459999999118" width="1.5680000000628525" height="100" as="geometry"/>
                </mxCell>
                <mxCell id="25" value="" style="rounded=1;whiteSpace=wrap;html=1;fontSize=51;fontFamily=Times New Roman;fillColor=#fad7ac;strokeColor=none;fontColor=#000000;strokeWidth=0;" parent="1" vertex="1">
                    <mxGeometry x="540.16999999984" width="1.5840000000544308" height="100" as="geometry"/>
                </mxCell>
                <mxCell id="26" value="" style="rounded=1;whiteSpace=wrap;html=1;fontSize=51;fontFamily=Times New Roman;fillColor=#fad7ac;strokeColor=none;fontColor=#000000;strokeWidth=0;" parent="1" vertex="1">
                    <mxGeometry x="542.073999999948" width="1.5359999998576512" height="100" as="geometry"/>
                </mxCell>
                <mxCell id="27" value="" style="rounded=1;whiteSpace=wrap;html=1;fontSize=51;fontFamily=Times New Roman;fillColor=#fad7ac;strokeColor=none;fontColor=#000000;strokeWidth=0;" parent="1" vertex="1">
                    <mxGeometry x="543.84949999986" width="1.5840000000544308" height="100" as="geometry"/>
                </mxCell>
                <mxCell id="28" value="" style="rounded=1;whiteSpace=wrap;html=1;fontSize=51;fontFamily=Times New Roman;fillColor=#fad7ac;strokeColor=none;fontColor=#000000;strokeWidth=0;" parent="1" vertex="1">
                    <mxGeometry x="545.7054999999933" width="1.5679999998408078" height="100" as="geometry"/>
                </mxCell>
                <mxCell id="29" value="" style="rounded=1;whiteSpace=wrap;html=1;fontSize=51;fontFamily=Times New Roman;fillColor=#fad7ac;strokeColor=none;fontColor=#000000;strokeWidth=0;" parent="1" vertex="1">
                    <mxGeometry x="547.5294999999214" width="1.6645000000536925" height="100" as="geometry"/>
                </mxCell>
                <mxCell id="30" value="" style="rounded=1;whiteSpace=wrap;html=1;fontSize=51;fontFamily=Times New Roman;fillColor=#fad7ac;strokeColor=none;fontColor=#000000;strokeWidth=0;" parent="1" vertex="1">
                    <mxGeometry x="549.4499999998403" width="1.5675000000214823" height="100" as="geometry"/>
                </mxCell>
                <mxCell id="31" value="" style="rounded=1;whiteSpace=wrap;html=1;fontSize=51;fontFamily=Times New Roman;fillColor=#fad7ac;strokeColor=none;fontColor=#000000;strokeWidth=0;" parent="1" vertex="1">
                    <mxGeometry x="551.2734999999491" width="1.6160000000375874" height="100" as="geometry"/>
                </mxCell>
                <mxCell id="32" value="" style="rounded=1;whiteSpace=wrap;html=1;fontSize=51;fontFamily=Times New Roman;fillColor=#fad7ac;strokeColor=none;fontColor=#000000;strokeWidth=0;" parent="1" vertex="1">
                    <mxGeometry x="553.1614999998435" width="1.5200000000881175" height="100" as="geometry"/>
                </mxCell>
                <mxCell id="33" value="" style="rounded=1;whiteSpace=wrap;html=1;fontSize=51;fontFamily=Times New Roman;fillColor=#fad7ac;strokeColor=none;fontColor=#000000;strokeWidth=0;" parent="1" vertex="1">
                    <mxGeometry x="554.9535000000105" width="1.631999999807121" height="100" as="geometry"/>
                </mxCell>
                <mxCell id="34" value="" style="rounded=1;whiteSpace=wrap;html=1;fontSize=51;fontFamily=Times New Roman;fillColor=#fad7ac;strokeColor=none;fontColor=#000000;strokeWidth=0;" parent="1" vertex="1">
                    <mxGeometry x="556.841499999905" width="1.5360000000796958" height="100" as="geometry"/>
                </mxCell>
                <mxCell id="35" value="" style="rounded=1;whiteSpace=wrap;html=1;fontSize=51;fontFamily=Times New Roman;fillColor=#fad7ac;strokeColor=none;fontColor=#000000;strokeWidth=0;" parent="1" vertex="1">
                    <mxGeometry x="558.6654999998331" width="1.7119999999870572" height="100" as="geometry"/>
                </mxCell>
                <mxCell id="36" value="" style="rounded=1;whiteSpace=wrap;html=1;fontSize=51;fontFamily=Times New Roman;fillColor=#fad7ac;strokeColor=none;fontColor=#000000;strokeWidth=0;" parent="1" vertex="1">
                    <mxGeometry x="560.649499999899" width="1.6160000000375874" height="100" as="geometry"/>
                </mxCell>
                <mxCell id="37" value="" style="rounded=1;whiteSpace=wrap;html=1;fontSize=51;fontFamily=Times New Roman;fillColor=#fad7ac;strokeColor=none;fontColor=#000000;strokeWidth=0;" parent="1" vertex="1">
                    <mxGeometry x="562.5694999999986" width="1.6800000000039006" height="100" as="geometry"/>
                </mxCell>
                <mxCell id="38" value="" style="rounded=1;whiteSpace=wrap;html=1;fontSize=51;fontFamily=Times New Roman;fillColor=#fad7ac;strokeColor=none;fontColor=#000000;strokeWidth=0;" parent="1" vertex="1">
                    <mxGeometry x="564.5214999998593" width="1.5200000000881175" height="100" as="geometry"/>
                </mxCell>
                <mxCell id="39" value="" style="rounded=1;whiteSpace=wrap;html=1;fontSize=51;fontFamily=Times New Roman;fillColor=#fad7ac;strokeColor=none;fontColor=#000000;strokeWidth=0;" parent="1" vertex="1">
                    <mxGeometry x="566.3134999998043" width="1.648000000020744" height="100" as="geometry"/>
                </mxCell>
                <mxCell id="40" value="" style="rounded=1;whiteSpace=wrap;html=1;fontSize=51;fontFamily=Times New Roman;fillColor=#fad7ac;strokeColor=none;fontColor=#000000;strokeWidth=0;" parent="1" vertex="1">
                    <mxGeometry x="568.2014999999208" width="1.4879999998829163" height="100" as="geometry"/>
                </mxCell>
                <mxCell id="41" value="" style="rounded=1;whiteSpace=wrap;html=1;fontSize=51;fontFamily=Times New Roman;fillColor=#fad7ac;strokeColor=none;fontColor=#000000;strokeWidth=0;" parent="1" vertex="1">
                    <mxGeometry x="569.9614999998826" width="1.488000000104961" height="100" as="geometry"/>
                </mxCell>
                <mxCell id="42" value="" style="rounded=1;whiteSpace=wrap;html=1;fontSize=51;fontFamily=Times New Roman;fillColor=#fad7ac;strokeColor=none;fontColor=#000000;strokeWidth=0;" parent="1" vertex="1">
                    <mxGeometry x="571.6894999998611" width="1.600000000046009" height="100" as="geometry"/>
                </mxCell>
                <mxCell id="43" value="" style="rounded=1;whiteSpace=wrap;html=1;fontSize=51;fontFamily=Times New Roman;fillColor=#fad7ac;strokeColor=none;fontColor=#000000;strokeWidth=0;" parent="1" vertex="1">
                    <mxGeometry x="573.5454999999945" width="1.5839999998323862" height="100" as="geometry"/>
                </mxCell>
                <mxCell id="44" value="" style="rounded=1;whiteSpace=wrap;html=1;fontSize=51;fontFamily=Times New Roman;fillColor=#fad7ac;strokeColor=none;fontColor=#000000;strokeWidth=0;" parent="1" vertex="1">
                    <mxGeometry x="575.3694999999226" width="1.600000000046009" height="100" as="geometry"/>
                </mxCell>
                <mxCell id="45" value="" style="rounded=1;whiteSpace=wrap;html=1;fontSize=51;fontFamily=Times New Roman;fillColor=#fad7ac;strokeColor=none;fontColor=#000000;strokeWidth=0;" parent="1" vertex="1">
                    <mxGeometry x="577.257499999817" width="1.5680000000628525" height="100" as="geometry"/>
                </mxCell>
                <mxCell id="46" value="" style="rounded=1;whiteSpace=wrap;html=1;fontSize=51;fontFamily=Times New Roman;fillColor=#fad7ac;strokeColor=none;fontColor=#000000;strokeWidth=0;" parent="1" vertex="1">
                    <mxGeometry x="579.1134999999504" width="1.648000000020744" height="100" as="geometry"/>
                </mxCell>
                <mxCell id="47" value="" style="rounded=1;whiteSpace=wrap;html=1;fontSize=51;fontFamily=Times New Roman;fillColor=#fad7ac;strokeColor=none;fontColor=#000000;strokeWidth=0;" parent="1" vertex="1">
                    <mxGeometry x="581.0654999998111" width="1.5840000000544308" height="100" as="geometry"/>
                </mxCell>
                <mxCell id="48" value="" style="rounded=1;whiteSpace=wrap;html=1;fontSize=51;fontFamily=Times New Roman;fillColor=#fad7ac;strokeColor=none;fontColor=#000000;strokeWidth=0;" parent="1" vertex="1">
                    <mxGeometry x="582.9214999999443" width="1.4879999998829163" height="100" as="geometry"/>
                </mxCell>
                <mxCell id="49" value="" style="rounded=1;whiteSpace=wrap;html=1;fontSize=51;fontFamily=Times New Roman;fillColor=#fad7ac;strokeColor=none;fontColor=#000000;strokeWidth=0;" parent="1" vertex="1">
                    <mxGeometry x="584.7134999998893" width="1.6474999999793738" height="100" as="geometry"/>
                </mxCell>
                <mxCell id="50" value="" style="rounded=1;whiteSpace=wrap;html=1;fontSize=51;fontFamily=Times New Roman;fillColor=#fad7ac;strokeColor=none;fontColor=#000000;strokeWidth=0;" parent="1" vertex="1">
                    <mxGeometry x="586.6329999999475" width="1.6800000000039006" height="100" as="geometry"/>
                </mxCell>
                <mxCell id="51" value="" style="rounded=1;whiteSpace=wrap;html=1;fontSize=51;fontFamily=Times New Roman;fillColor=#fad7ac;strokeColor=none;fontColor=#000000;strokeWidth=0;" parent="1" vertex="1">
                    <mxGeometry x="588.5849999998082" width="1.488500000146331" height="100" as="geometry"/>
                </mxCell>
                <mxCell id="52" value="" style="rounded=1;whiteSpace=wrap;html=1;fontSize=51;fontFamily=Times New Roman;fillColor=#fad7ac;strokeColor=none;fontColor=#000000;strokeWidth=0;" parent="1" vertex="1">
                    <mxGeometry x="590.3454999998114" width="1.5200000000881175" height="100" as="geometry"/>
                </mxCell>
                <mxCell id="53" value="" style="rounded=1;whiteSpace=wrap;html=1;fontSize=51;fontFamily=Times New Roman;fillColor=#fad7ac;strokeColor=none;fontColor=#000000;strokeWidth=0;" parent="1" vertex="1">
                    <mxGeometry x="592.1374999999784" width="1.4714999998499678" height="100" as="geometry"/>
                </mxCell>
                <mxCell id="54" value="" style="rounded=1;whiteSpace=wrap;html=1;fontSize=51;fontFamily=Times New Roman;fillColor=#fad7ac;strokeColor=none;fontColor=#000000;strokeWidth=0;" parent="1" vertex="1">
                    <mxGeometry x="593.8649999999157" width="1.6320000000291657" height="100" as="geometry"/>
                </mxCell>
                <mxCell id="55" value="" style="rounded=1;whiteSpace=wrap;html=1;fontSize=51;fontFamily=Times New Roman;fillColor=#fad7ac;strokeColor=none;fontColor=#000000;strokeWidth=0;" parent="1" vertex="1">
                    <mxGeometry x="595.7529999998101" width="1.648000000020744" height="100" as="geometry"/>
                </mxCell>
                <mxCell id="56" value="" style="rounded=1;whiteSpace=wrap;html=1;fontSize=51;fontFamily=Times New Roman;fillColor=#fad7ac;strokeColor=none;fontColor=#000000;strokeWidth=0;" parent="1" vertex="1">
                    <mxGeometry x="597.6729999999097" width="1.648000000020744" height="100" as="geometry"/>
                </mxCell>
                <mxCell id="57" value="" style="rounded=1;whiteSpace=wrap;html=1;fontSize=51;fontFamily=Times New Roman;fillColor=#fad7ac;strokeColor=none;fontColor=#000000;strokeWidth=0;" parent="1" vertex="1">
                    <mxGeometry x="599.5930000000094" width="1.6159999998155428" height="100" as="geometry"/>
                </mxCell>
                <mxCell id="58" value="" style="rounded=1;whiteSpace=wrap;html=1;fontSize=51;fontFamily=Times New Roman;fillColor=#fad7ac;strokeColor=none;fontColor=#000000;strokeWidth=0;" parent="1" vertex="1">
                    <mxGeometry x="601.5129999998869" width="1.5200000000881175" height="100" as="geometry"/>
                </mxCell>
                <mxCell id="59" value="" style="rounded=1;whiteSpace=wrap;html=1;fontSize=51;fontFamily=Times New Roman;fillColor=#fad7ac;strokeColor=none;fontColor=#000000;strokeWidth=0;" parent="1" vertex="1">
                    <mxGeometry x="603.3049999998319" width="1.5200000000881175" height="100" as="geometry"/>
                </mxCell>
                <mxCell id="60" value="" style="rounded=1;whiteSpace=wrap;html=1;fontSize=51;fontFamily=Times New Roman;fillColor=#fad7ac;strokeColor=none;fontColor=#000000;strokeWidth=0;" parent="1" vertex="1">
                    <mxGeometry x="605.0969999999988" width="1.5839999998323862" height="100" as="geometry"/>
                </mxCell>
                <mxCell id="61" value="" style="rounded=1;whiteSpace=wrap;html=1;fontSize=51;fontFamily=Times New Roman;fillColor=#fad7ac;strokeColor=none;fontColor=#000000;strokeWidth=0;" parent="1" vertex="1">
                    <mxGeometry x="606.920999999927" width="1.6320000000291657" height="100" as="geometry"/>
                </mxCell>
                <mxCell id="62" value="" style="rounded=1;whiteSpace=wrap;html=1;fontSize=51;fontFamily=Times New Roman;fillColor=#fad7ac;strokeColor=none;fontColor=#000000;strokeWidth=0;" parent="1" vertex="1">
                    <mxGeometry x="608.8409999998046" width="1.6960000002175235" height="100" as="geometry"/>
                </mxCell>
                <mxCell id="63" value="" style="rounded=1;whiteSpace=wrap;html=1;fontSize=51;fontFamily=Times New Roman;fillColor=#fad7ac;strokeColor=none;fontColor=#000000;strokeWidth=0;" parent="1" vertex="1">
                    <mxGeometry x="610.7929999998873" width="1.6320000000291657" height="100" as="geometry"/>
                </mxCell>
                <mxCell id="64" value="" style="rounded=1;whiteSpace=wrap;html=1;fontSize=51;fontFamily=Times New Roman;fillColor=#fad7ac;strokeColor=none;fontColor=#000000;strokeWidth=0;" parent="1" vertex="1">
                    <mxGeometry x="612.7449999999701" width="1.5679999998408078" height="100" as="geometry"/>
                </mxCell>
                <mxCell id="65" value="" style="rounded=1;whiteSpace=wrap;html=1;fontSize=51;fontFamily=Times New Roman;fillColor=#fad7ac;strokeColor=none;fontColor=#000000;strokeWidth=0;" parent="1" vertex="1">
                    <mxGeometry x="614.6009999998814" width="1.6160000000375874" height="100" as="geometry"/>
                </mxCell>
                <mxCell id="66" value="" style="rounded=1;whiteSpace=wrap;html=1;fontSize=51;fontFamily=Times New Roman;fillColor=#fad7ac;strokeColor=none;fontColor=#000000;strokeWidth=0;" parent="1" vertex="1">
                    <mxGeometry x="616.520999999981" width="1.807999999936527" height="100" as="geometry"/>
                </mxCell>
                <mxCell id="67" value="" style="rounded=1;whiteSpace=wrap;html=1;fontSize=51;fontFamily=Times New Roman;fillColor=#fad7ac;strokeColor=none;fontColor=#000000;strokeWidth=0;" parent="1" vertex="1">
                    <mxGeometry x="618.6009999999964" width="1.631999999807121" height="100" as="geometry"/>
                </mxCell>
                <mxCell id="68" value="" style="rounded=1;whiteSpace=wrap;html=1;fontSize=51;fontFamily=Times New Roman;fillColor=#fad7ac;strokeColor=none;fontColor=#000000;strokeWidth=0;" parent="1" vertex="1">
                    <mxGeometry x="620.4889999998908" width="1.5840000000544308" height="100" as="geometry"/>
                </mxCell>
                <mxCell id="69" value="" style="rounded=1;whiteSpace=wrap;html=1;fontSize=51;fontFamily=Times New Roman;fillColor=#fad7ac;strokeColor=none;fontColor=#000000;strokeWidth=0;" parent="1" vertex="1">
                    <mxGeometry x="622.3129999998189" width="1.600000000046009" height="100" as="geometry"/>
                </mxCell>
                <mxCell id="70" value="" style="rounded=1;whiteSpace=wrap;html=1;fontSize=51;fontFamily=Times New Roman;fillColor=#fad7ac;strokeColor=none;fontColor=#000000;strokeWidth=0;" parent="1" vertex="1">
                    <mxGeometry x="624.2009999999354" width="1.6640000000123223" height="100" as="geometry"/>
                </mxCell>
                <mxCell id="71" value="" style="rounded=1;whiteSpace=wrap;html=1;fontSize=51;fontFamily=Times New Roman;fillColor=#fad7ac;strokeColor=none;fontColor=#000000;strokeWidth=0;" parent="1" vertex="1">
                    <mxGeometry x="626.1850000000013" width="1.6954999999541087" height="100" as="geometry"/>
                </mxCell>
                <mxCell id="72" value="" style="rounded=1;whiteSpace=wrap;html=1;fontSize=51;fontFamily=Times New Roman;fillColor=#fad7ac;strokeColor=none;fontColor=#000000;strokeWidth=0;" parent="1" vertex="1">
                    <mxGeometry x="628.1684999998039" width="1.5360000000796958" height="100" as="geometry"/>
                </mxCell>
                <mxCell id="73" value="" style="rounded=1;whiteSpace=wrap;html=1;fontSize=51;fontFamily=Times New Roman;fillColor=#fad7ac;strokeColor=none;fontColor=#000000;strokeWidth=0;" parent="1" vertex="1">
                    <mxGeometry x="629.9610000000122" width="1.4879999998829163" height="100" as="geometry"/>
                </mxCell>
                <mxCell id="74" value="" style="rounded=1;whiteSpace=wrap;html=1;fontSize=51;fontFamily=Times New Roman;fillColor=#fad7ac;strokeColor=none;fontColor=#000000;strokeWidth=0;" parent="1" vertex="1">
                    <mxGeometry x="631.720999999974" width="1.6160000000375874" height="100" as="geometry"/>
                </mxCell>
                <mxCell id="75" value="" style="rounded=1;whiteSpace=wrap;html=1;fontSize=51;fontFamily=Times New Roman;fillColor=#fad7ac;strokeColor=none;fontColor=#000000;strokeWidth=0;" parent="1" vertex="1">
                    <mxGeometry x="633.6089999998684" width="1.6154999999962172" height="100" as="geometry"/>
                </mxCell>
                <mxCell id="76" value="" style="rounded=1;whiteSpace=wrap;html=1;fontSize=51;fontFamily=Times New Roman;fillColor=#fad7ac;strokeColor=none;fontColor=#000000;strokeWidth=0;" parent="1" vertex="1">
                    <mxGeometry x="635.5284999999267" width="1.600000000046009" height="100" as="geometry"/>
                </mxCell>
                <mxCell id="77" value="" style="rounded=1;whiteSpace=wrap;html=1;fontSize=51;fontFamily=Times New Roman;fillColor=#fad7ac;strokeColor=none;fontColor=#000000;strokeWidth=0;" parent="1" vertex="1">
                    <mxGeometry x="637.3844999998379" width="1.488000000104961" height="100" as="geometry"/>
                </mxCell>
                <mxCell id="78" value="" style="rounded=1;whiteSpace=wrap;html=1;fontSize=51;fontFamily=Times New Roman;fillColor=#fad7ac;strokeColor=none;fontColor=#000000;strokeWidth=0;" parent="1" vertex="1">
                    <mxGeometry x="639.1124999998166" width="1.600000000046009" height="100" as="geometry"/>
                </mxCell>
                <mxCell id="79" value="" style="rounded=1;whiteSpace=wrap;html=1;fontSize=51;fontFamily=Times New Roman;fillColor=#fad7ac;strokeColor=none;fontColor=#000000;strokeWidth=0;" parent="1" vertex="1">
                    <mxGeometry x="640.9684999999499" width="1.6640000000123223" height="100" as="geometry"/>
                </mxCell>
                <mxCell id="80" value="" style="rounded=1;whiteSpace=wrap;html=1;fontSize=51;fontFamily=Times New Roman;fillColor=#fad7ac;strokeColor=none;fontColor=#000000;strokeWidth=0;" parent="1" vertex="1">
                    <mxGeometry x="642.8884999998274" width="1.648000000020744" height="100" as="geometry"/>
                </mxCell>
                <mxCell id="81" value="" style="rounded=1;whiteSpace=wrap;html=1;fontSize=51;fontFamily=Times New Roman;fillColor=#fad7ac;strokeColor=none;fontColor=#000000;strokeWidth=0;" parent="1" vertex="1">
                    <mxGeometry x="644.8084999999271" width="1.855999999911262" height="100" as="geometry"/>
                </mxCell>
                <mxCell id="82" value="" style="rounded=1;whiteSpace=wrap;html=1;fontSize=51;fontFamily=Times New Roman;fillColor=#fad7ac;strokeColor=none;fontColor=#000000;strokeWidth=0;" parent="1" vertex="1">
                    <mxGeometry x="646.9204999999256" width="1.5200000000881175" height="100" as="geometry"/>
                </mxCell>
                <mxCell id="83" value="" style="rounded=1;whiteSpace=wrap;html=1;fontSize=51;fontFamily=Times New Roman;fillColor=#fad7ac;strokeColor=none;fontColor=#000000;strokeWidth=0;" parent="1" vertex="1">
                    <mxGeometry x="648.7124999998706" width="1.5040000000965392" height="100" as="geometry"/>
                </mxCell>
                <mxCell id="84" value="" style="rounded=1;whiteSpace=wrap;html=1;fontSize=51;fontFamily=Times New Roman;fillColor=#fad7ac;strokeColor=none;fontColor=#000000;strokeWidth=0;" parent="1" vertex="1">
                    <mxGeometry x="650.5044999998155" width="1.6160000000375874" height="100" as="geometry"/>
                </mxCell>
                <mxCell id="85" value="" style="rounded=1;whiteSpace=wrap;html=1;fontSize=51;fontFamily=Times New Roman;fillColor=#fad7ac;strokeColor=none;fontColor=#000000;strokeWidth=0;" parent="1" vertex="1">
                    <mxGeometry x="652.3924999999319" width="1.5840000000544308" height="100" as="geometry"/>
                </mxCell>
                <mxCell id="86" value="" style="rounded=1;whiteSpace=wrap;html=1;fontSize=51;fontFamily=Times New Roman;fillColor=#fad7ac;strokeColor=none;fontColor=#000000;strokeWidth=0;" parent="1" vertex="1">
                    <mxGeometry x="654.2804999998264" width="1.5840000000544308" height="100" as="geometry"/>
                </mxCell>
                <mxCell id="87" value="" style="rounded=1;whiteSpace=wrap;html=1;fontSize=51;fontFamily=Times New Roman;fillColor=#fad7ac;strokeColor=none;fontColor=#000000;strokeWidth=0;" parent="1" vertex="1">
                    <mxGeometry x="656.1364999999597" width="1.519999999866073" height="100" as="geometry"/>
                </mxCell>
                <mxCell id="88" value="" style="rounded=1;whiteSpace=wrap;html=1;fontSize=51;fontFamily=Times New Roman;fillColor=#fad7ac;strokeColor=none;fontColor=#000000;strokeWidth=0;" parent="1" vertex="1">
                    <mxGeometry x="657.9284999999047" width="1.5680000000628525" height="100" as="geometry"/>
                </mxCell>
                <mxCell id="89" value="" style="rounded=1;whiteSpace=wrap;html=1;fontSize=51;fontFamily=Times New Roman;fillColor=#fad7ac;strokeColor=none;fontColor=#000000;strokeWidth=0;" parent="1" vertex="1">
                    <mxGeometry x="659.7844999998159" width="1.6320000000291657" height="100" as="geometry"/>
                </mxCell>
                <mxCell id="90" value="" style="rounded=1;whiteSpace=wrap;html=1;fontSize=51;fontFamily=Times New Roman;fillColor=#fad7ac;strokeColor=none;fontColor=#000000;strokeWidth=0;" parent="1" vertex="1">
                    <mxGeometry x="661.6724999999324" width="1.5039999998744946" height="100" as="geometry"/>
                </mxCell>
                <mxCell id="91" value="" style="rounded=1;whiteSpace=wrap;html=1;fontSize=51;fontFamily=Times New Roman;fillColor=#fad7ac;strokeColor=none;fontColor=#000000;strokeWidth=0;" parent="1" vertex="1">
                    <mxGeometry x="663.4004999999111" width="1.5200000000881175" height="100" as="geometry"/>
                </mxCell>
                <mxCell id="92" value="" style="rounded=1;whiteSpace=wrap;html=1;fontSize=51;fontFamily=Times New Roman;fillColor=#fad7ac;strokeColor=none;fontColor=#000000;strokeWidth=0;" parent="1" vertex="1">
                    <mxGeometry x="665.192499999856" width="1.6160000000375874" height="100" as="geometry"/>
                </mxCell>
                <mxCell id="93" value="" style="rounded=1;whiteSpace=wrap;html=1;fontSize=51;fontFamily=Times New Roman;fillColor=#fad7ac;strokeColor=none;fontColor=#000000;strokeWidth=0;" parent="1" vertex="1">
                    <mxGeometry x="667.0804999999724" width="1.5839999998323862" height="100" as="geometry"/>
                </mxCell>
                <mxCell id="94" value="" style="rounded=1;whiteSpace=wrap;html=1;fontSize=51;fontFamily=Times New Roman;fillColor=#fad7ac;strokeColor=none;fontColor=#000000;strokeWidth=0;" parent="1" vertex="1">
                    <mxGeometry x="668.9044999999005" width="1.6154999999962172" height="100" as="geometry"/>
                </mxCell>
                <mxCell id="95" value="" style="rounded=1;whiteSpace=wrap;html=1;fontSize=51;fontFamily=Times New Roman;fillColor=#fad7ac;strokeColor=none;fontColor=#000000;strokeWidth=0;" parent="1" vertex="1">
                    <mxGeometry x="670.792500000017" width="1.6159999998155428" height="100" as="geometry"/>
                </mxCell>
                <mxCell id="96" value="" style="rounded=1;whiteSpace=wrap;html=1;fontSize=51;fontFamily=Times New Roman;fillColor=#fad7ac;strokeColor=none;fontColor=#000000;strokeWidth=0;" parent="1" vertex="1">
                    <mxGeometry x="672.6804999999114" width="1.6160000000375874" height="100" as="geometry"/>
                </mxCell>
                <mxCell id="97" value="" style="rounded=1;whiteSpace=wrap;html=1;fontSize=51;fontFamily=Times New Roman;fillColor=#fad7ac;strokeColor=none;fontColor=#000000;strokeWidth=0;" parent="1" vertex="1">
                    <mxGeometry x="674.5364999998227" width="1.648000000020744" height="100" as="geometry"/>
                </mxCell>
                <mxCell id="98" value="" style="rounded=1;whiteSpace=wrap;html=1;fontSize=51;fontFamily=Times New Roman;fillColor=#fad7ac;strokeColor=none;fontColor=#000000;strokeWidth=0;" parent="1" vertex="1">
                    <mxGeometry x="676.4564999999222" width="1.5835000000130606" height="100" as="geometry"/>
                </mxCell>
                <mxCell id="99" value="" style="rounded=1;whiteSpace=wrap;html=1;fontSize=51;fontFamily=Times New Roman;fillColor=#fad7ac;strokeColor=none;fontColor=#000000;strokeWidth=0;" parent="1" vertex="1">
                    <mxGeometry x="678.3439999999974" width="1.5679999998408078" height="100" as="geometry"/>
                </mxCell>
                <mxCell id="100" value="" style="rounded=1;whiteSpace=wrap;html=1;fontSize=51;fontFamily=Times New Roman;fillColor=#fad7ac;strokeColor=none;fontColor=#000000;strokeWidth=0;" parent="1" vertex="1">
                    <mxGeometry x="680.1999999999086" width="1.5200000000881175" height="100" as="geometry"/>
                </mxCell>
                <mxCell id="101" value="" style="rounded=1;whiteSpace=wrap;html=1;fontSize=51;fontFamily=Times New Roman;fillColor=#fad7ac;strokeColor=none;fontColor=#000000;strokeWidth=0;" parent="1" vertex="1">
                    <mxGeometry x="682.0239999998367" width="1.6640000000123223" height="100" as="geometry"/>
                </mxCell>
                <mxCell id="102" value="" style="rounded=1;whiteSpace=wrap;html=1;fontSize=51;fontFamily=Times New Roman;fillColor=#fad7ac;strokeColor=none;fontColor=#000000;strokeWidth=0;" parent="1" vertex="1">
                    <mxGeometry x="683.9119999999532" width="1.6160000000375874" height="100" as="geometry"/>
                </mxCell>
                <mxCell id="103" value="" style="rounded=1;whiteSpace=wrap;html=1;fontSize=51;fontFamily=Times New Roman;fillColor=#fad7ac;strokeColor=none;fontColor=#000000;strokeWidth=0;" parent="1" vertex="1">
                    <mxGeometry x="685.7679999998645" width="1.600000000046009" height="100" as="geometry"/>
                </mxCell>
                <mxCell id="104" value="" style="rounded=1;whiteSpace=wrap;html=1;fontSize=51;fontFamily=Times New Roman;fillColor=#fad7ac;strokeColor=none;fontColor=#000000;strokeWidth=0;" parent="1" vertex="1">
                    <mxGeometry x="687.6879999999641" width="1.6800000000039006" height="100" as="geometry"/>
                </mxCell>
                <mxCell id="105" value="" style="rounded=1;whiteSpace=wrap;html=1;fontSize=51;fontFamily=Times New Roman;fillColor=#fad7ac;strokeColor=none;fontColor=#000000;strokeWidth=0;" parent="1" vertex="1">
                    <mxGeometry x="689.6880000000216" width="1.519999999866073" height="100" as="geometry"/>
                </mxCell>
                <mxCell id="106" value="" style="rounded=1;whiteSpace=wrap;html=1;fontSize=51;fontFamily=Times New Roman;fillColor=#fad7ac;strokeColor=none;fontColor=#000000;strokeWidth=0;" parent="1" vertex="1">
                    <mxGeometry x="691.4639999999749" width="1.5839999998323862" height="100" as="geometry"/>
                </mxCell>
                <mxCell id="107" value="" style="rounded=1;whiteSpace=wrap;html=1;fontSize=51;fontFamily=Times New Roman;fillColor=#fad7ac;strokeColor=none;fontColor=#000000;strokeWidth=0;" parent="1" vertex="1">
                    <mxGeometry x="693.3199999998862" width="1.5680000000628525" height="100" as="geometry"/>
                </mxCell>
                <mxCell id="108" value="" style="rounded=1;whiteSpace=wrap;html=1;fontSize=51;fontFamily=Times New Roman;fillColor=#fad7ac;strokeColor=none;fontColor=#000000;strokeWidth=0;" parent="1" vertex="1">
                    <mxGeometry x="695.1439999998144" width="1.776000000175415" height="100" as="geometry"/>
                </mxCell>
                <mxCell id="109" value="" style="rounded=1;whiteSpace=wrap;html=1;fontSize=51;fontFamily=Times New Roman;fillColor=#fad7ac;strokeColor=none;fontColor=#000000;strokeWidth=0;" parent="1" vertex="1">
                    <mxGeometry x="697.2239999998297" width="1.776000000175415" height="100" as="geometry"/>
                </mxCell>
                <mxCell id="110" value="" style="rounded=1;whiteSpace=wrap;html=1;fontSize=51;fontFamily=Times New Roman;fillColor=#fad7ac;strokeColor=none;fontColor=#000000;strokeWidth=0;" parent="1" vertex="1">
                    <mxGeometry x="699.3039999998451" width="1.5680000000628525" height="100" as="geometry"/>
                </mxCell>
                <mxCell id="111" value="" style="rounded=1;whiteSpace=wrap;html=1;fontSize=51;fontFamily=Times New Roman;fillColor=#fad7ac;strokeColor=none;fontColor=#000000;strokeWidth=0;" parent="1" vertex="1">
                    <mxGeometry x="701.1279999999953" width="1.6159999998155428" height="100" as="geometry"/>
                </mxCell>
                <mxCell id="112" value="" style="rounded=1;whiteSpace=wrap;html=1;fontSize=51;fontFamily=Times New Roman;fillColor=#fad7ac;strokeColor=none;fontColor=#000000;strokeWidth=0;" parent="1" vertex="1">
                    <mxGeometry x="703.0159999998897" width="1.5680000000628525" height="100" as="geometry"/>
                </mxCell>
                <mxCell id="113" value="" style="rounded=1;whiteSpace=wrap;html=1;fontSize=51;fontFamily=Times New Roman;fillColor=#fad7ac;strokeColor=none;fontColor=#000000;strokeWidth=0;" parent="1" vertex="1">
                    <mxGeometry x="704.871999999801" width="1.6800000000039006" height="100" as="geometry"/>
                </mxCell>
                <mxCell id="114" value="" style="rounded=1;whiteSpace=wrap;html=1;fontSize=51;fontFamily=Times New Roman;fillColor=#fad7ac;strokeColor=none;fontColor=#000000;strokeWidth=0;" parent="1" vertex="1">
                    <mxGeometry x="706.8239999998838" width="1.7119999999870572" height="100" as="geometry"/>
                </mxCell>
                <mxCell id="115" value="" style="rounded=1;whiteSpace=wrap;html=1;fontSize=51;fontFamily=Times New Roman;fillColor=#fad7ac;strokeColor=none;fontColor=#000000;strokeWidth=0;" parent="1" vertex="1">
                    <mxGeometry x="708.8079999999497" width="1.6640000000123223" height="100" as="geometry"/>
                </mxCell>
                <mxCell id="116" value="" style="rounded=1;whiteSpace=wrap;html=1;fontSize=51;fontFamily=Times New Roman;fillColor=#fad7ac;strokeColor=none;fontColor=#000000;strokeWidth=0;" parent="1" vertex="1">
                    <mxGeometry x="710.7599999998105" width="1.6800000000039006" height="100" as="geometry"/>
                </mxCell>
                <mxCell id="117" value="" style="rounded=1;whiteSpace=wrap;html=1;fontSize=51;fontFamily=Times New Roman;fillColor=#fad7ac;strokeColor=none;fontColor=#000000;strokeWidth=0;" parent="1" vertex="1">
                    <mxGeometry x="712.7119999998932" width="1.5520000000712741" height="100" as="geometry"/>
                </mxCell>
                <mxCell id="118" value="" style="rounded=1;whiteSpace=wrap;html=1;fontSize=51;fontFamily=Times New Roman;fillColor=#fad7ac;strokeColor=none;fontColor=#000000;strokeWidth=0;" parent="1" vertex="1">
                    <mxGeometry x="714.5359999998213" width="1.5680000000628525" height="100" as="geometry"/>
                </mxCell>
                <mxCell id="857" value="" style="rounded=1;whiteSpace=wrap;html=1;fontSize=51;fontFamily=Times New Roman;fillColor=#fad7ac;strokeColor=none;fontColor=#000000;strokeWidth=0;" parent="1" vertex="1">
                    <mxGeometry x="919.9979999998989" width="1.711499999945687" height="100" as="geometry"/>
                </mxCell>
                <mxCell id="858" value="" style="rounded=1;whiteSpace=wrap;html=1;fontSize=51;fontFamily=Times New Roman;fillColor=#fad7ac;strokeColor=none;fontColor=#000000;strokeWidth=0;" parent="1" vertex="1">
                    <mxGeometry x="921.9814999999232" width="1.568499999882178" height="100" as="geometry"/>
                </mxCell>
                <mxCell id="859" value="" style="rounded=1;whiteSpace=wrap;html=1;fontSize=51;fontFamily=Times New Roman;fillColor=#fad7ac;strokeColor=none;fontColor=#000000;strokeWidth=0;" parent="1" vertex="1">
                    <mxGeometry x="923.805999999893" width="1.5840000000544308" height="100" as="geometry"/>
                </mxCell>
                <mxCell id="860" value="" style="rounded=1;whiteSpace=wrap;html=1;fontSize=51;fontFamily=Times New Roman;fillColor=#fad7ac;strokeColor=none;fontColor=#000000;strokeWidth=0;" parent="1" vertex="1">
                    <mxGeometry x="925.6299999998207" width="1.5200000000881175" height="100" as="geometry"/>
                </mxCell>
                <mxCell id="861" value="" style="rounded=1;whiteSpace=wrap;html=1;fontSize=51;fontFamily=Times New Roman;fillColor=#fad7ac;strokeColor=none;fontColor=#000000;strokeWidth=0;" parent="1" vertex="1">
                    <mxGeometry x="927.3900000000046" width="1.5514999998078594" height="100" as="geometry"/>
                </mxCell>
                <mxCell id="862" value="" style="rounded=1;whiteSpace=wrap;html=1;fontSize=51;fontFamily=Times New Roman;fillColor=#fad7ac;strokeColor=none;fontColor=#000000;strokeWidth=0;" parent="1" vertex="1">
                    <mxGeometry x="929.2134999998914" width="1.5840000000544308" height="100" as="geometry"/>
                </mxCell>
                <mxCell id="863" value="" style="rounded=1;whiteSpace=wrap;html=1;fontSize=51;fontFamily=Times New Roman;fillColor=#fad7ac;strokeColor=none;fontColor=#000000;strokeWidth=0;" parent="1" vertex="1">
                    <mxGeometry x="931.1015000000077" width="1.471999999891338" height="100" as="geometry"/>
                </mxCell>
                <mxCell id="864" value="" style="rounded=1;whiteSpace=wrap;html=1;fontSize=51;fontFamily=Times New Roman;fillColor=#fad7ac;strokeColor=none;fontColor=#000000;strokeWidth=0;" parent="1" vertex="1">
                    <mxGeometry x="932.8614999999697" width="1.5839999998323862" height="100" as="geometry"/>
                </mxCell>
                <mxCell id="865" value="" style="rounded=1;whiteSpace=wrap;html=1;fontSize=51;fontFamily=Times New Roman;fillColor=#fad7ac;strokeColor=none;fontColor=#000000;strokeWidth=0;" parent="1" vertex="1">
                    <mxGeometry x="934.7494999998642" width="1.4720000001133826" height="100" as="geometry"/>
                </mxCell>
                <mxCell id="866" value="" style="rounded=1;whiteSpace=wrap;html=1;fontSize=51;fontFamily=Times New Roman;fillColor=#fad7ac;strokeColor=none;fontColor=#000000;strokeWidth=0;" parent="1" vertex="1">
                    <mxGeometry x="936.5094999998257" width="1.5840000000544308" height="100" as="geometry"/>
                </mxCell>
                <mxCell id="867" value="" style="rounded=1;whiteSpace=wrap;html=1;fontSize=51;fontFamily=Times New Roman;fillColor=#fad7ac;strokeColor=none;fontColor=#000000;strokeWidth=0;" parent="1" vertex="1">
                    <mxGeometry x="938.3654999999592" width="1.600000000046009" height="100" as="geometry"/>
                </mxCell>
                <mxCell id="868" value="" style="rounded=1;whiteSpace=wrap;html=1;fontSize=51;fontFamily=Times New Roman;fillColor=#fad7ac;strokeColor=none;fontColor=#000000;strokeWidth=0;" parent="1" vertex="1">
                    <mxGeometry x="940.1894999998874" width="1.5040000000965392" height="100" as="geometry"/>
                </mxCell>
                <mxCell id="869" value="" style="rounded=1;whiteSpace=wrap;html=1;fontSize=51;fontFamily=Times New Roman;fillColor=#fad7ac;strokeColor=none;fontColor=#000000;strokeWidth=0;" parent="1" vertex="1">
                    <mxGeometry x="941.949499999849" width="1.5200000000881175" height="100" as="geometry"/>
                </mxCell>
                <mxCell id="870" value="" style="rounded=1;whiteSpace=wrap;html=1;fontSize=51;fontFamily=Times New Roman;fillColor=#fad7ac;strokeColor=none;fontColor=#000000;strokeWidth=0;" parent="1" vertex="1">
                    <mxGeometry x="943.709499999811" width="1.5840000000544308" height="100" as="geometry"/>
                </mxCell>
                <mxCell id="871" value="" style="rounded=1;whiteSpace=wrap;html=1;fontSize=51;fontFamily=Times New Roman;fillColor=#fad7ac;strokeColor=none;fontColor=#000000;strokeWidth=0;" parent="1" vertex="1">
                    <mxGeometry x="945.5654999999444" width="1.7119999999870572" height="100" as="geometry"/>
                </mxCell>
                <mxCell id="872" value="" style="rounded=1;whiteSpace=wrap;html=1;fontSize=51;fontFamily=Times New Roman;fillColor=#fad7ac;strokeColor=none;fontColor=#000000;strokeWidth=0;" parent="1" vertex="1">
                    <mxGeometry x="947.5174999998051" width="1.6160000000375874" height="100" as="geometry"/>
                </mxCell>
                <mxCell id="873" value="" style="rounded=1;whiteSpace=wrap;html=1;fontSize=51;fontFamily=Times New Roman;fillColor=#fad7ac;strokeColor=none;fontColor=#000000;strokeWidth=0;" parent="1" vertex="1">
                    <mxGeometry x="949.4374999999047" width="1.5680000000628525" height="100" as="geometry"/>
                </mxCell>
                <mxCell id="874" value="" style="rounded=1;whiteSpace=wrap;html=1;fontSize=51;fontFamily=Times New Roman;fillColor=#fad7ac;strokeColor=none;fontColor=#000000;strokeWidth=0;" parent="1" vertex="1">
                    <mxGeometry x="951.2614999998325" width="1.600000000046009" height="100" as="geometry"/>
                </mxCell>
                <mxCell id="875" value="" style="rounded=1;whiteSpace=wrap;html=1;fontSize=51;fontFamily=Times New Roman;fillColor=#fad7ac;strokeColor=none;fontColor=#000000;strokeWidth=0;" parent="1" vertex="1">
                    <mxGeometry x="953.117499999966" width="1.5359999998576512" height="100" as="geometry"/>
                </mxCell>
                <mxCell id="876" value="" style="rounded=1;whiteSpace=wrap;html=1;fontSize=51;fontFamily=Times New Roman;fillColor=#fad7ac;strokeColor=none;fontColor=#000000;strokeWidth=0;" parent="1" vertex="1">
                    <mxGeometry x="954.877499999928" width="1.5039999998744946" height="100" as="geometry"/>
                </mxCell>
                <mxCell id="877" value="" style="rounded=1;whiteSpace=wrap;html=1;fontSize=51;fontFamily=Times New Roman;fillColor=#fad7ac;strokeColor=none;fontColor=#000000;strokeWidth=0;" parent="1" vertex="1">
                    <mxGeometry x="956.6374999998895" width="1.6320000000291657" height="100" as="geometry"/>
                </mxCell>
                <mxCell id="878" value="" style="rounded=1;whiteSpace=wrap;html=1;fontSize=51;fontFamily=Times New Roman;fillColor=#fad7ac;strokeColor=none;fontColor=#000000;strokeWidth=0;" parent="1" vertex="1">
                    <mxGeometry x="958.5574999999892" width="1.5839999998323862" height="100" as="geometry"/>
                </mxCell>
                <mxCell id="879" value="" style="rounded=1;whiteSpace=wrap;html=1;fontSize=51;fontFamily=Times New Roman;fillColor=#fad7ac;strokeColor=none;fontColor=#000000;strokeWidth=0;" parent="1" vertex="1">
                    <mxGeometry x="960.4134999999003" width="1.7759999999533704" height="100" as="geometry"/>
                </mxCell>
                <mxCell id="880" value="" style="rounded=1;whiteSpace=wrap;html=1;fontSize=51;fontFamily=Times New Roman;fillColor=#fad7ac;strokeColor=none;fontColor=#000000;strokeWidth=0;" parent="1" vertex="1">
                    <mxGeometry x="962.4609999998913" width="1.488000000104961" height="100" as="geometry"/>
                </mxCell>
                <mxCell id="881" value="" style="rounded=1;whiteSpace=wrap;html=1;fontSize=51;fontFamily=Times New Roman;fillColor=#fad7ac;strokeColor=none;fontColor=#000000;strokeWidth=0;" parent="1" vertex="1">
                    <mxGeometry x="964.2214999998944" width="1.5840000000544308" height="100" as="geometry"/>
                </mxCell>
                <mxCell id="882" value="" style="rounded=1;whiteSpace=wrap;html=1;fontSize=51;fontFamily=Times New Roman;fillColor=#fad7ac;strokeColor=none;fontColor=#000000;strokeWidth=0;" parent="1" vertex="1">
                    <mxGeometry x="966.0454999998226" width="1.7119999999870572" height="100" as="geometry"/>
                </mxCell>
                <mxCell id="883" value="" style="rounded=1;whiteSpace=wrap;html=1;fontSize=51;fontFamily=Times New Roman;fillColor=#fad7ac;strokeColor=none;fontColor=#000000;strokeWidth=0;" parent="1" vertex="1">
                    <mxGeometry x="968.0294999998885" width="1.503500000055169" height="100" as="geometry"/>
                </mxCell>
                <mxCell id="884" value="" style="rounded=1;whiteSpace=wrap;html=1;fontSize=51;fontFamily=Times New Roman;fillColor=#fad7ac;strokeColor=none;fontColor=#000000;strokeWidth=0;" parent="1" vertex="1">
                    <mxGeometry x="969.788999999809" width="1.5840000000544308" height="100" as="geometry"/>
                </mxCell>
                <mxCell id="885" value="" style="rounded=1;whiteSpace=wrap;html=1;fontSize=51;fontFamily=Times New Roman;fillColor=#fad7ac;strokeColor=none;fontColor=#000000;strokeWidth=0;" parent="1" vertex="1">
                    <mxGeometry x="971.6129999999591" width="1.6320000000291657" height="100" as="geometry"/>
                </mxCell>
                <mxCell id="886" value="" style="rounded=1;whiteSpace=wrap;html=1;fontSize=51;fontFamily=Times New Roman;fillColor=#fad7ac;strokeColor=none;fontColor=#000000;strokeWidth=0;" parent="1" vertex="1">
                    <mxGeometry x="973.5329999998369" width="1.5840000000544308" height="100" as="geometry"/>
                </mxCell>
                <mxCell id="887" value="" style="rounded=1;whiteSpace=wrap;html=1;fontSize=51;fontFamily=Times New Roman;fillColor=#fad7ac;strokeColor=none;fontColor=#000000;strokeWidth=0;" parent="1" vertex="1">
                    <mxGeometry x="975.4209999999532" width="1.5840000000544308" height="100" as="geometry"/>
                </mxCell>
                <mxCell id="888" value="" style="rounded=1;whiteSpace=wrap;html=1;fontSize=51;fontFamily=Times New Roman;fillColor=#fad7ac;strokeColor=none;fontColor=#000000;strokeWidth=0;" parent="1" vertex="1">
                    <mxGeometry x="977.3089999998476" width="1.600000000046009" height="100" as="geometry"/>
                </mxCell>
                <mxCell id="889" value="" style="rounded=1;whiteSpace=wrap;html=1;fontSize=51;fontFamily=Times New Roman;fillColor=#fad7ac;strokeColor=none;fontColor=#000000;strokeWidth=0;" parent="1" vertex="1">
                    <mxGeometry x="979.196999999964" width="1.6640000000123223" height="100" as="geometry"/>
                </mxCell>
                <mxCell id="890" value="" style="rounded=1;whiteSpace=wrap;html=1;fontSize=51;fontFamily=Times New Roman;fillColor=#fad7ac;strokeColor=none;fontColor=#000000;strokeWidth=0;" parent="1" vertex="1">
                    <mxGeometry x="981.1169999998417" width="1.6800000000039006" height="100" as="geometry"/>
                </mxCell>
                <mxCell id="891" value="" style="rounded=1;whiteSpace=wrap;html=1;fontSize=51;fontFamily=Times New Roman;fillColor=#fad7ac;strokeColor=none;fontColor=#000000;strokeWidth=0;" parent="1" vertex="1">
                    <mxGeometry x="983.1009999999076" width="1.6800000000039006" height="100" as="geometry"/>
                </mxCell>
                <mxCell id="892" value="" style="rounded=1;whiteSpace=wrap;html=1;fontSize=51;fontFamily=Times New Roman;fillColor=#fad7ac;strokeColor=none;fontColor=#000000;strokeWidth=0;" parent="1" vertex="1">
                    <mxGeometry x="985.0849999999734" width="1.6160000000375874" height="100" as="geometry"/>
                </mxCell>
                <mxCell id="893" value="" style="rounded=1;whiteSpace=wrap;html=1;fontSize=51;fontFamily=Times New Roman;fillColor=#fad7ac;strokeColor=none;fontColor=#000000;strokeWidth=0;" parent="1" vertex="1">
                    <mxGeometry x="986.9729999998679" width="1.7279999999786355" height="100" as="geometry"/>
                </mxCell>
                <mxCell id="894" value="" style="rounded=1;whiteSpace=wrap;html=1;fontSize=51;fontFamily=Times New Roman;fillColor=#fad7ac;strokeColor=none;fontColor=#000000;strokeWidth=0;" parent="1" vertex="1">
                    <mxGeometry x="988.988999999917" width="1.5840000000544308" height="100" as="geometry"/>
                </mxCell>
                <mxCell id="895" value="" style="rounded=1;whiteSpace=wrap;html=1;fontSize=51;fontFamily=Times New Roman;fillColor=#fad7ac;strokeColor=none;fontColor=#000000;strokeWidth=0;" parent="1" vertex="1">
                    <mxGeometry x="990.8769999998115" width="1.6640000000123223" height="100" as="geometry"/>
                </mxCell>
                <mxCell id="896" value="" style="rounded=1;whiteSpace=wrap;html=1;fontSize=51;fontFamily=Times New Roman;fillColor=#fad7ac;strokeColor=none;fontColor=#000000;strokeWidth=0;" parent="1" vertex="1">
                    <mxGeometry x="992.8609999998773" width="1.4720000001133826" height="100" as="geometry"/>
                </mxCell>
                <mxCell id="897" value="" style="rounded=1;whiteSpace=wrap;html=1;fontSize=51;fontFamily=Times New Roman;fillColor=#fad7ac;strokeColor=none;fontColor=#000000;strokeWidth=0;" parent="1" vertex="1">
                    <mxGeometry x="994.588999999856" width="1.5200000000881175" height="100" as="geometry"/>
                </mxCell>
                <mxCell id="898" value="" style="rounded=1;whiteSpace=wrap;html=1;fontSize=51;fontFamily=Times New Roman;fillColor=#fad7ac;strokeColor=none;fontColor=#000000;strokeWidth=0;" parent="1" vertex="1">
                    <mxGeometry x="996.3649999998095" width="1.600000000046009" height="100" as="geometry"/>
                </mxCell>
                <mxCell id="899" value="" style="rounded=1;whiteSpace=wrap;html=1;fontSize=51;fontFamily=Times New Roman;fillColor=#fad7ac;strokeColor=none;fontColor=#000000;strokeWidth=0;" parent="1" vertex="1">
                    <mxGeometry x="998.2689999999172" width="1.600000000046009" height="100" as="geometry"/>
                </mxCell>
                <mxCell id="900" value="" style="rounded=1;whiteSpace=wrap;html=1;fontSize=51;fontFamily=Times New Roman;fillColor=#fad7ac;strokeColor=none;fontColor=#000000;strokeWidth=0;" parent="1" vertex="1">
                    <mxGeometry x="1000.1569999998117" width="1.5840000000544308" height="100" as="geometry"/>
                </mxCell>
                <mxCell id="901" value="" style="rounded=1;whiteSpace=wrap;html=1;fontSize=51;fontFamily=Times New Roman;fillColor=#fad7ac;strokeColor=none;fontColor=#000000;strokeWidth=0;" parent="1" vertex="1">
                    <mxGeometry x="1001.9809999999618" width="1.6640000000123223" height="100" as="geometry"/>
                </mxCell>
                <mxCell id="902" value="" style="rounded=1;whiteSpace=wrap;html=1;fontSize=51;fontFamily=Times New Roman;fillColor=#fad7ac;strokeColor=none;fontColor=#000000;strokeWidth=0;" parent="1" vertex="1">
                    <mxGeometry x="1003.8689999998562" width="1.648000000020744" height="100" as="geometry"/>
                </mxCell>
                <mxCell id="903" value="" style="rounded=1;whiteSpace=wrap;html=1;fontSize=51;fontFamily=Times New Roman;fillColor=#fad7ac;strokeColor=none;fontColor=#000000;strokeWidth=0;" parent="1" vertex="1">
                    <mxGeometry x="1005.7889999999559" width="1.6640000000123223" height="100" as="geometry"/>
                </mxCell>
                <mxCell id="904" value="" style="rounded=1;whiteSpace=wrap;html=1;fontSize=51;fontFamily=Times New Roman;fillColor=#fad7ac;strokeColor=none;fontColor=#000000;strokeWidth=0;" parent="1" vertex="1">
                    <mxGeometry x="1007.7089999998336" width="1.5360000000796958" height="100" as="geometry"/>
                </mxCell>
                <mxCell id="905" value="" style="rounded=1;whiteSpace=wrap;html=1;fontSize=51;fontFamily=Times New Roman;fillColor=#fad7ac;strokeColor=none;fontColor=#000000;strokeWidth=0;" parent="1" vertex="1">
                    <mxGeometry x="1009.5010000000004" width="1.7759999999533704" height="100" as="geometry"/>
                </mxCell>
                <mxCell id="906" value="" style="rounded=1;whiteSpace=wrap;html=1;fontSize=51;fontFamily=Times New Roman;fillColor=#fad7ac;strokeColor=none;fontColor=#000000;strokeWidth=0;" parent="1" vertex="1">
                    <mxGeometry x="1011.5804999999748" width="1.4879999998829163" height="100" as="geometry"/>
                </mxCell>
                <mxCell id="907" value="" style="rounded=1;whiteSpace=wrap;html=1;fontSize=51;fontFamily=Times New Roman;fillColor=#fad7ac;strokeColor=none;fontColor=#000000;strokeWidth=0;" parent="1" vertex="1">
                    <mxGeometry x="1013.308499999953" width="1.6320000000291657" height="100" as="geometry"/>
                </mxCell>
                <mxCell id="908" value="" style="rounded=1;whiteSpace=wrap;html=1;fontSize=51;fontFamily=Times New Roman;fillColor=#fad7ac;strokeColor=none;fontColor=#000000;strokeWidth=0;" parent="1" vertex="1">
                    <mxGeometry x="1015.1964999998474" width="1.648000000020744" height="100" as="geometry"/>
                </mxCell>
                <mxCell id="909" value="" style="rounded=1;whiteSpace=wrap;html=1;fontSize=51;fontFamily=Times New Roman;fillColor=#fad7ac;strokeColor=none;fontColor=#000000;strokeWidth=0;" parent="1" vertex="1">
                    <mxGeometry x="1017.1169999999886" width="1.5034999998331244" height="100" as="geometry"/>
                </mxCell>
                <mxCell id="910" value="" style="rounded=1;whiteSpace=wrap;html=1;fontSize=51;fontFamily=Times New Roman;fillColor=#fad7ac;strokeColor=none;fontColor=#000000;strokeWidth=0;" parent="1" vertex="1">
                    <mxGeometry x="1018.8444999999258" width="2.0000000000575113" height="100" as="geometry"/>
                </mxCell>
                <mxCell id="911" value="" style="rounded=1;whiteSpace=wrap;html=1;fontSize=51;fontFamily=Times New Roman;fillColor=#fad7ac;strokeColor=none;fontColor=#000000;strokeWidth=0;" parent="1" vertex="1">
                    <mxGeometry x="1021.1164999998402" width="1.5840000000544308" height="100" as="geometry"/>
                </mxCell>
                <mxCell id="912" value="" style="rounded=1;whiteSpace=wrap;html=1;fontSize=51;fontFamily=Times New Roman;fillColor=#fad7ac;strokeColor=none;fontColor=#000000;strokeWidth=0;" parent="1" vertex="1">
                    <mxGeometry x="1022.9404999999904" width="1.5999999998239645" height="100" as="geometry"/>
                </mxCell>
                <mxCell id="913" value="" style="rounded=1;whiteSpace=wrap;html=1;fontSize=51;fontFamily=Times New Roman;fillColor=#fad7ac;strokeColor=none;fontColor=#000000;strokeWidth=0;" parent="1" vertex="1">
                    <mxGeometry x="1024.7964999999015" width="1.5520000000712741" height="100" as="geometry"/>
                </mxCell>
                <mxCell id="914" value="" style="rounded=1;whiteSpace=wrap;html=1;fontSize=51;fontFamily=Times New Roman;fillColor=#fad7ac;strokeColor=none;fontColor=#000000;strokeWidth=0;" parent="1" vertex="1">
                    <mxGeometry x="1026.6204999998297" width="1.6160000000375874" height="100" as="geometry"/>
                </mxCell>
                <mxCell id="915" value="" style="rounded=1;whiteSpace=wrap;html=1;fontSize=51;fontFamily=Times New Roman;fillColor=#fad7ac;strokeColor=none;fontColor=#000000;strokeWidth=0;" parent="1" vertex="1">
                    <mxGeometry x="1028.508499999946" width="1.5840000000544308" height="100" as="geometry"/>
                </mxCell>
                <mxCell id="916" value="" style="rounded=1;whiteSpace=wrap;html=1;fontSize=51;fontFamily=Times New Roman;fillColor=#fad7ac;strokeColor=none;fontColor=#000000;strokeWidth=0;" parent="1" vertex="1">
                    <mxGeometry x="1030.3644999998576" width="1.600000000046009" height="100" as="geometry"/>
                </mxCell>
                <mxCell id="917" value="" style="rounded=1;whiteSpace=wrap;html=1;fontSize=51;fontFamily=Times New Roman;fillColor=#fad7ac;strokeColor=none;fontColor=#000000;strokeWidth=0;" parent="1" vertex="1">
                    <mxGeometry x="1032.2204999999906" width="1.5519999998492295" height="100" as="geometry"/>
                </mxCell>
                <mxCell id="918" value="" style="rounded=1;whiteSpace=wrap;html=1;fontSize=51;fontFamily=Times New Roman;fillColor=#fad7ac;strokeColor=none;fontColor=#000000;strokeWidth=0;" parent="1" vertex="1">
                    <mxGeometry x="1034.0444999999188" width="1.600000000046009" height="100" as="geometry"/>
                </mxCell>
                <mxCell id="919" value="" style="rounded=1;whiteSpace=wrap;html=1;fontSize=51;fontFamily=Times New Roman;fillColor=#fad7ac;strokeColor=none;fontColor=#000000;strokeWidth=0;" parent="1" vertex="1">
                    <mxGeometry x="1035.9324999998132" width="1.600000000046009" height="100" as="geometry"/>
                </mxCell>
                <mxCell id="920" value="" style="rounded=1;whiteSpace=wrap;html=1;fontSize=51;fontFamily=Times New Roman;fillColor=#fad7ac;strokeColor=none;fontColor=#000000;strokeWidth=0;" parent="1" vertex="1">
                    <mxGeometry x="1037.7564999999634" width="1.6320000000291657" height="100" as="geometry"/>
                </mxCell>
                <mxCell id="921" value="" style="rounded=1;whiteSpace=wrap;html=1;fontSize=51;fontFamily=Times New Roman;fillColor=#fad7ac;strokeColor=none;fontColor=#000000;strokeWidth=0;" parent="1" vertex="1">
                    <mxGeometry x="1039.676499999841" width="1.600000000046009" height="100" as="geometry"/>
                </mxCell>
                <mxCell id="922" value="" style="rounded=1;whiteSpace=wrap;html=1;fontSize=51;fontFamily=Times New Roman;fillColor=#fad7ac;strokeColor=none;fontColor=#000000;strokeWidth=0;" parent="1" vertex="1">
                    <mxGeometry x="1041.5644999999574" width="1.7599999999617921" height="100" as="geometry"/>
                </mxCell>
                <mxCell id="923" value="" style="rounded=1;whiteSpace=wrap;html=1;fontSize=51;fontFamily=Times New Roman;fillColor=#fad7ac;strokeColor=none;fontColor=#000000;strokeWidth=0;" parent="1" vertex="1">
                    <mxGeometry x="1043.5805000000066" width="1.631999999807121" height="100" as="geometry"/>
                </mxCell>
                <mxCell id="924" value="" style="rounded=1;whiteSpace=wrap;html=1;fontSize=51;fontFamily=Times New Roman;fillColor=#fad7ac;strokeColor=none;fontColor=#000000;strokeWidth=0;" parent="1" vertex="1">
                    <mxGeometry x="1045.5004999998844" width="1.5680000000628525" height="100" as="geometry"/>
                </mxCell>
                <mxCell id="925" value="" style="rounded=1;whiteSpace=wrap;html=1;fontSize=51;fontFamily=Times New Roman;fillColor=#fad7ac;strokeColor=none;fontColor=#000000;strokeWidth=0;" parent="1" vertex="1">
                    <mxGeometry x="1047.3244999998121" width="1.6320000000291657" height="100" as="geometry"/>
                </mxCell>
                <mxCell id="926" value="" style="rounded=1;whiteSpace=wrap;html=1;fontSize=51;fontFamily=Times New Roman;fillColor=#fad7ac;strokeColor=none;fontColor=#000000;strokeWidth=0;" parent="1" vertex="1">
                    <mxGeometry x="1049.2444999999118" width="1.5520000000712741" height="100" as="geometry"/>
                </mxCell>
                <mxCell id="927" value="" style="rounded=1;whiteSpace=wrap;html=1;fontSize=51;fontFamily=Times New Roman;fillColor=#fad7ac;strokeColor=none;fontColor=#000000;strokeWidth=0;" parent="1" vertex="1">
                    <mxGeometry x="1051.1004999998233" width="1.6800000000039006" height="100" as="geometry"/>
                </mxCell>
                <mxCell id="928" value="" style="rounded=1;whiteSpace=wrap;html=1;fontSize=51;fontFamily=Times New Roman;fillColor=#fad7ac;strokeColor=none;fontColor=#000000;strokeWidth=0;" parent="1" vertex="1">
                    <mxGeometry x="1053.0844999998892" width="1.5355000000383257" height="100" as="geometry"/>
                </mxCell>
                <mxCell id="929" value="" style="rounded=1;whiteSpace=wrap;html=1;fontSize=51;fontFamily=Times New Roman;fillColor=#fad7ac;strokeColor=none;fontColor=#000000;strokeWidth=0;" parent="1" vertex="1">
                    <mxGeometry x="1054.9079999999979" width="1.519999999866073" height="100" as="geometry"/>
                </mxCell>
                <mxCell id="930" value="" style="rounded=1;whiteSpace=wrap;html=1;fontSize=51;fontFamily=Times New Roman;fillColor=#fad7ac;strokeColor=none;fontColor=#000000;strokeWidth=0;" parent="1" vertex="1">
                    <mxGeometry x="1056.731999999926" width="1.6165000000789576" height="100" as="geometry"/>
                </mxCell>
                <mxCell id="931" value="" style="rounded=1;whiteSpace=wrap;html=1;fontSize=51;fontFamily=Times New Roman;fillColor=#fad7ac;strokeColor=none;fontColor=#000000;strokeWidth=0;" parent="1" vertex="1">
                    <mxGeometry x="1058.620499999862" width="1.6640000000123223" height="100" as="geometry"/>
                </mxCell>
                <mxCell id="932" value="" style="rounded=1;whiteSpace=wrap;html=1;fontSize=51;fontFamily=Times New Roman;fillColor=#fad7ac;strokeColor=none;fontColor=#000000;strokeWidth=0;" parent="1" vertex="1">
                    <mxGeometry x="1060.571999999903" width="1.5200000000881175" height="100" as="geometry"/>
                </mxCell>
                <mxCell id="933" value="" style="rounded=1;whiteSpace=wrap;html=1;fontSize=51;fontFamily=Times New Roman;fillColor=#fad7ac;strokeColor=none;fontColor=#000000;strokeWidth=0;" parent="1" vertex="1">
                    <mxGeometry x="1062.331999999865" width="1.6320000000291657" height="100" as="geometry"/>
                </mxCell>
                <mxCell id="934" value="" style="rounded=1;whiteSpace=wrap;html=1;fontSize=51;fontFamily=Times New Roman;fillColor=#fad7ac;strokeColor=none;fontColor=#000000;strokeWidth=0;" parent="1" vertex="1">
                    <mxGeometry x="1064.2519999999647" width="1.7439999999702138" height="100" as="geometry"/>
                </mxCell>
                <mxCell id="935" value="" style="rounded=1;whiteSpace=wrap;html=1;fontSize=51;fontFamily=Times New Roman;fillColor=#fad7ac;strokeColor=none;fontColor=#000000;strokeWidth=0;" parent="1" vertex="1">
                    <mxGeometry x="1066.268000000014" width="1.6159999998155428" height="100" as="geometry"/>
                </mxCell>
                <mxCell id="936" value="" style="rounded=1;whiteSpace=wrap;html=1;fontSize=51;fontFamily=Times New Roman;fillColor=#fad7ac;strokeColor=none;fontColor=#000000;strokeWidth=0;" parent="1" vertex="1">
                    <mxGeometry x="1068.1879999998912" width="1.695999999995479" height="100" as="geometry"/>
                </mxCell>
                <mxCell id="937" value="" style="rounded=1;whiteSpace=wrap;html=1;fontSize=51;fontFamily=Times New Roman;fillColor=#fad7ac;strokeColor=none;fontColor=#000000;strokeWidth=0;" parent="1" vertex="1">
                    <mxGeometry x="1070.1399999999742" width="1.6160000000375874" height="100" as="geometry"/>
                </mxCell>
                <mxCell id="938" value="" style="rounded=1;whiteSpace=wrap;html=1;fontSize=51;fontFamily=Times New Roman;fillColor=#fad7ac;strokeColor=none;fontColor=#000000;strokeWidth=0;" parent="1" vertex="1">
                    <mxGeometry x="1072.0599999998515" width="1.6800000000039006" height="100" as="geometry"/>
                </mxCell>
                <mxCell id="939" value="" style="rounded=1;whiteSpace=wrap;html=1;fontSize=51;fontFamily=Times New Roman;fillColor=#fad7ac;strokeColor=none;fontColor=#000000;strokeWidth=0;" parent="1" vertex="1">
                    <mxGeometry x="1074.0119999999345" width="1.6320000000291657" height="100" as="geometry"/>
                </mxCell>
                <mxCell id="940" value="" style="rounded=1;whiteSpace=wrap;html=1;fontSize=51;fontFamily=Times New Roman;fillColor=#fad7ac;strokeColor=none;fontColor=#000000;strokeWidth=0;" parent="1" vertex="1">
                    <mxGeometry x="1075.8999999998289" width="1.5200000000881175" height="100" as="geometry"/>
                </mxCell>
                <mxCell id="941" value="" style="rounded=1;whiteSpace=wrap;html=1;fontSize=51;fontFamily=Times New Roman;fillColor=#fad7ac;strokeColor=none;fontColor=#000000;strokeWidth=0;" parent="1" vertex="1">
                    <mxGeometry x="1077.6600000000128" width="1.5039999998744946" height="100" as="geometry"/>
                </mxCell>
                <mxCell id="942" value="" style="rounded=1;whiteSpace=wrap;html=1;fontSize=51;fontFamily=Times New Roman;fillColor=#fad7ac;strokeColor=none;fontColor=#000000;strokeWidth=0;" parent="1" vertex="1">
                    <mxGeometry x="1079.4199999999744" width="1.4879999998829163" height="100" as="geometry"/>
                </mxCell>
                <mxCell id="943" value="" style="rounded=1;whiteSpace=wrap;html=1;fontSize=51;fontFamily=Times New Roman;fillColor=#fad7ac;strokeColor=none;fontColor=#000000;strokeWidth=0;" parent="1" vertex="1">
                    <mxGeometry x="1081.147999999953" width="1.5840000000544308" height="100" as="geometry"/>
                </mxCell>
                <mxCell id="944" value="" style="rounded=1;whiteSpace=wrap;html=1;fontSize=51;fontFamily=Times New Roman;fillColor=#fad7ac;strokeColor=none;fontColor=#000000;strokeWidth=0;" parent="1" vertex="1">
                    <mxGeometry x="1082.9719999998813" width="1.6160000000375874" height="100" as="geometry"/>
                </mxCell>
                <mxCell id="945" value="" style="rounded=1;whiteSpace=wrap;html=1;fontSize=51;fontFamily=Times New Roman;fillColor=#fad7ac;strokeColor=none;fontColor=#000000;strokeWidth=0;" parent="1" vertex="1">
                    <mxGeometry x="1084.8599999999976" width="1.6800000000039006" height="100" as="geometry"/>
                </mxCell>
                <mxCell id="946" value="" style="rounded=1;whiteSpace=wrap;html=1;fontSize=51;fontFamily=Times New Roman;fillColor=#fad7ac;strokeColor=none;fontColor=#000000;strokeWidth=0;" parent="1" vertex="1">
                    <mxGeometry x="1086.8439999998416" width="1.600000000046009" height="100" as="geometry"/>
                </mxCell>
                <mxCell id="947" value="" style="rounded=1;whiteSpace=wrap;html=1;fontSize=51;fontFamily=Times New Roman;fillColor=#fad7ac;strokeColor=none;fontColor=#000000;strokeWidth=0;" parent="1" vertex="1">
                    <mxGeometry x="1088.731999999958" width="1.5359999998576512" height="100" as="geometry"/>
                </mxCell>
                <mxCell id="948" value="" style="rounded=1;whiteSpace=wrap;html=1;fontSize=51;fontFamily=Times New Roman;fillColor=#fad7ac;strokeColor=none;fontColor=#000000;strokeWidth=0;" parent="1" vertex="1">
                    <mxGeometry x="1090.5559999998861" width="1.6800000000039006" height="100" as="geometry"/>
                </mxCell>
                <mxCell id="949" value="" style="rounded=1;whiteSpace=wrap;html=1;fontSize=51;fontFamily=Times New Roman;fillColor=#fad7ac;strokeColor=none;fontColor=#000000;strokeWidth=0;" parent="1" vertex="1">
                    <mxGeometry x="1092.539999999952" width="1.5039999998744946" height="100" as="geometry"/>
                </mxCell>
                <mxCell id="950" value="" style="rounded=1;whiteSpace=wrap;html=1;fontSize=51;fontFamily=Times New Roman;fillColor=#fad7ac;strokeColor=none;fontColor=#000000;strokeWidth=0;" parent="1" vertex="1">
                    <mxGeometry x="1094.299999999914" width="1.6474999999793738" height="100" as="geometry"/>
                </mxCell>
                <mxCell id="951" value="" style="rounded=1;whiteSpace=wrap;html=1;fontSize=51;fontFamily=Times New Roman;fillColor=#fad7ac;strokeColor=none;fontColor=#000000;strokeWidth=0;" parent="1" vertex="1">
                    <mxGeometry x="1096.251499999955" width="1.600000000046009" height="100" as="geometry"/>
                </mxCell>
                <mxCell id="952" value="" style="rounded=1;whiteSpace=wrap;html=1;fontSize=51;fontFamily=Times New Roman;fillColor=#fad7ac;strokeColor=none;fontColor=#000000;strokeWidth=0;" parent="1" vertex="1">
                    <mxGeometry x="1098.1394999998495" width="1.6805000000452708" height="100" as="geometry"/>
                </mxCell>
                <mxCell id="953" value="" style="rounded=1;whiteSpace=wrap;html=1;fontSize=51;fontFamily=Times New Roman;fillColor=#fad7ac;strokeColor=none;fontColor=#000000;strokeWidth=0;" parent="1" vertex="1">
                    <mxGeometry x="1100.1239999999568" width="1.4879999998829163" height="100" as="geometry"/>
                </mxCell>
                <mxCell id="954" value="" style="rounded=1;whiteSpace=wrap;html=1;fontSize=51;fontFamily=Times New Roman;fillColor=#fad7ac;strokeColor=none;fontColor=#000000;strokeWidth=0;" parent="1" vertex="1">
                    <mxGeometry x="1101.8839999999188" width="1.5835000000130606" height="100" as="geometry"/>
                </mxCell>
                <mxCell id="955" value="" style="rounded=1;whiteSpace=wrap;html=1;fontSize=51;fontFamily=Times New Roman;fillColor=#fad7ac;strokeColor=none;fontColor=#000000;strokeWidth=0;" parent="1" vertex="1">
                    <mxGeometry x="1103.7074999998056" width="1.488000000104961" height="100" as="geometry"/>
                </mxCell>
                <mxCell id="956" value="" style="rounded=1;whiteSpace=wrap;html=1;fontSize=51;fontFamily=Times New Roman;fillColor=#fad7ac;strokeColor=none;fontColor=#000000;strokeWidth=0;" parent="1" vertex="1">
                    <mxGeometry x="1105.4355000000062" width="1.6479999997986994" height="100" as="geometry"/>
                </mxCell>
                <mxCell id="957" value="" style="rounded=1;whiteSpace=wrap;html=1;fontSize=51;fontFamily=Times New Roman;fillColor=#fad7ac;strokeColor=none;fontColor=#000000;strokeWidth=0;" parent="1" vertex="1">
                    <mxGeometry x="1107.355499999884" width="1.5680000000628525" height="100" as="geometry"/>
                </mxCell>
                <mxCell id="958" value="" style="rounded=1;whiteSpace=wrap;html=1;fontSize=51;fontFamily=Times New Roman;fillColor=#fad7ac;strokeColor=none;fontColor=#000000;strokeWidth=0;" parent="1" vertex="1">
                    <mxGeometry x="1109.1794999998117" width="1.600000000046009" height="100" as="geometry"/>
                </mxCell>
                <mxCell id="959" value="" style="rounded=1;whiteSpace=wrap;html=1;fontSize=51;fontFamily=Times New Roman;fillColor=#fad7ac;strokeColor=none;fontColor=#000000;strokeWidth=0;" parent="1" vertex="1">
                    <mxGeometry x="1111.0354999999452" width="1.7759999999533704" height="100" as="geometry"/>
                </mxCell>
                <mxCell id="960" value="" style="rounded=1;whiteSpace=wrap;html=1;fontSize=51;fontFamily=Times New Roman;fillColor=#fad7ac;strokeColor=none;fontColor=#000000;strokeWidth=0;" parent="1" vertex="1">
                    <mxGeometry x="1113.099499999969" width="1.648000000020744" height="100" as="geometry"/>
                </mxCell>
                <mxCell id="961" value="" style="rounded=1;whiteSpace=wrap;html=1;fontSize=51;fontFamily=Times New Roman;fillColor=#fad7ac;strokeColor=none;fontColor=#000000;strokeWidth=0;" parent="1" vertex="1">
                    <mxGeometry x="1114.9714999998716" width="1.7759999999533704" height="100" as="geometry"/>
                </mxCell>
                <mxCell id="962" value="" style="rounded=1;whiteSpace=wrap;html=1;fontSize=51;fontFamily=Times New Roman;fillColor=#fad7ac;strokeColor=none;fontColor=#000000;strokeWidth=0;" parent="1" vertex="1">
                    <mxGeometry x="1117.051499999887" width="1.5200000000881175" height="100" as="geometry"/>
                </mxCell>
                <mxCell id="963" value="" style="rounded=1;whiteSpace=wrap;html=1;fontSize=51;fontFamily=Times New Roman;fillColor=#fad7ac;strokeColor=none;fontColor=#000000;strokeWidth=0;" parent="1" vertex="1">
                    <mxGeometry x="1118.8754999998152" width="1.648000000020744" height="100" as="geometry"/>
                </mxCell>
                <mxCell id="964" value="" style="rounded=1;whiteSpace=wrap;html=1;fontSize=51;fontFamily=Times New Roman;fillColor=#fad7ac;strokeColor=none;fontColor=#000000;strokeWidth=0;" parent="1" vertex="1">
                    <mxGeometry x="1120.8434999998897" width="1.600000000046009" height="100" as="geometry"/>
                </mxCell>
                <mxCell id="965" value="" style="rounded=1;whiteSpace=wrap;html=1;fontSize=51;fontFamily=Times New Roman;fillColor=#fad7ac;strokeColor=none;fontColor=#000000;strokeWidth=0;" parent="1" vertex="1">
                    <mxGeometry x="1122.747499999998" width="1.5359999998576512" height="100" as="geometry"/>
                </mxCell>
                <mxCell id="966" value="" style="rounded=1;whiteSpace=wrap;html=1;fontSize=51;fontFamily=Times New Roman;fillColor=#b0e3e6;strokeColor=default;fontColor=#000000;strokeWidth=0.01;" parent="1" vertex="1">
                    <mxGeometry x="3.2639999998362867" y="100" width="284.3485000001422" height="100" as="geometry"/>
                </mxCell>
                <mxCell id="967" value="" style="rounded=1;whiteSpace=wrap;html=1;fontSize=51;fontFamily=Times New Roman;fillColor=#b0e3e6;strokeColor=default;fontColor=#000000;strokeWidth=0.01;" parent="1" vertex="1">
                    <mxGeometry x="287.9164999998185" y="100" width="254.38150000001158" height="100" as="geometry"/>
                </mxCell>
                <mxCell id="968" value="Time" style="text;strokeColor=none;fillColor=none;html=1;fontSize=51;fontStyle=1;verticalAlign=middle;align=center;fontFamily=Times New Roman;" parent="1" vertex="1">
                    <mxGeometry x="1500" y="320" width="200" height="80" as="geometry"/>
                </mxCell>
                <mxCell id="969" value="Kernel" style="text;strokeColor=none;fillColor=none;html=1;fontSize=51;fontStyle=1;verticalAlign=middle;align=center;fontFamily=Times New Roman;" parent="1" vertex="1">
                    <mxGeometry x="-330" y="-90" width="200" height="80" as="geometry"/>
                </mxCell>
                <mxCell id="970" value="" style="edgeStyle=segmentEdgeStyle;endArrow=classic;html=1;curved=0;rounded=0;endSize=8;startSize=8;strokeWidth=10;startArrow=none;startFill=0;" parent="1" edge="1">
                    <mxGeometry width="50" height="50" relative="1" as="geometry">
                        <mxPoint x="704.5799999999999" y="280" as="sourcePoint"/>
                        <mxPoint x="-85.42" y="-90" as="targetPoint"/>
                    </mxGeometry>
                </mxCell>
                <mxCell id="971" value="vec_add" style="text;strokeColor=none;fillColor=none;html=1;fontSize=51;fontStyle=0;verticalAlign=middle;align=center;fontFamily=Courier New;" parent="1" vertex="1">
                    <mxGeometry x="1286.8700000000001" y="10" width="200" height="80" as="geometry"/>
                </mxCell>
                <mxCell id="972" value="matrix_mul" style="text;strokeColor=none;fillColor=none;html=1;fontSize=51;fontStyle=0;verticalAlign=middle;align=center;fontFamily=Courier New;" parent="1" vertex="1">
                    <mxGeometry x="1286.8700000000001" y="110" width="200" height="80" as="geometry"/>
                </mxCell>
                <mxCell id="DGtY9msRLV6gpZZl1lKh-972" value="" style="line;strokeWidth=10;html=1;perimeter=backbonePerimeter;points=[];outlineConnect=0;dashed=1;perimeterSpacing=0;dashPattern=1 1;" parent="1" vertex="1">
                    <mxGeometry x="716.1" y="275" width="203.9" height="10" as="geometry"/>
                </mxCell>
                <mxCell id="DGtY9msRLV6gpZZl1lKh-973" value="" style="endArrow=classic;html=1;rounded=0;strokeWidth=10;" parent="1" edge="1">
                    <mxGeometry width="50" height="50" relative="1" as="geometry">
                        <mxPoint x="920" y="280" as="sourcePoint"/>
                        <mxPoint x="1599.9999999999998" y="280" as="targetPoint"/>
                    </mxGeometry>
                </mxCell>
                <mxCell id="DGtY9msRLV6gpZZl1lKh-974" value="$$\cdots$$" style="text;strokeColor=none;fillColor=none;html=1;fontSize=50;fontStyle=1;verticalAlign=middle;align=center;" parent="1" vertex="1">
                    <mxGeometry x="768.05" y="30" width="100" height="40" as="geometry"/>
                </mxCell>
            </root>
        </mxGraphModel>
    </diagram>
</mxfile>